<?xml version="1.0" encoding="utf-8"?>
<!-- Generator: Adobe Illustrator 15.0.0, SVG Export Plug-In . SVG Version: 6.00 Build 0)  -->
<!DOCTYPE svg PUBLIC "-//W3C//DTD SVG 1.1//EN" "http://www.w3.org/Graphics/SVG/1.1/DTD/svg11.dtd">
<svg version="1.1" id="圖層_1" xmlns="http://www.w3.org/2000/svg" xmlns:xlink="http://www.w3.org/1999/xlink" x="0px" y="0px"
	 width="284px" height="39px" viewBox="0 0 284 39" enable-background="new 0 0 284 39" xml:space="preserve">
<path fill="#FFFFFF" d="M5.619,8.079C5.407,8.458,5.1,9.676,4.698,11.733c-0.4,2.058-0.602,3.783-0.602,5.178
	c0.769-0.123,1.561-0.229,2.375-0.319l3.511-0.402c0.557-0.078,1.338-0.25,2.341-0.518c1.014-0.268,1.705-0.401,2.074-0.401
	c1.315,0,1.973,0.535,1.973,1.605c0,0.212-0.187,0.479-0.56,0.803c-0.374,0.324-0.87,0.552-1.488,0.686s-2.11,0.33-4.473,0.586
	c-2.898,0.334-4.619,0.589-5.159,0.761c-0.541,0.174-0.861,0.346-0.961,0.519c-0.1,0.173-0.207,0.98-0.318,2.426
	c-0.112,1.444-0.167,2.617-0.167,3.52l0.067,2.075c0,1.136-0.412,1.706-1.237,1.706c-0.513,0-0.986-0.195-1.421-0.587
	C0.217,28.981,0,28.457,0,27.799c0-2.586,0.636-8.039,1.906-16.358C2.207,9.5,2.357,8.458,2.357,8.313
	c0-0.212-0.066-0.536-0.201-0.971C1.979,6.797,1.89,6.417,1.89,6.205c0-0.301,0.167-0.627,0.501-0.979
	C2.726,4.875,3.043,4.7,3.344,4.7l2.208,0.251c0.68,0,1.945-0.111,3.796-0.335c3.143-0.379,5.3-0.569,6.471-0.569
	c1.025,0,1.761,0.157,2.207,0.468c0.445,0.313,0.669,0.619,0.669,0.919c0,0.535-0.181,0.996-0.543,1.38
	c-0.363,0.385-0.75,0.578-1.163,0.578c-0.19,0-0.396-0.022-0.619-0.067c-1.215-0.2-2.14-0.301-2.775-0.301
	c-1.193,0-2.739,0.109-4.64,0.326C7.053,7.569,5.942,7.812,5.619,8.079z"/>
<path fill="#FFFFFF" d="M25.45,0.15c0.802,0,1.204,0.513,1.204,1.539c0,0.914-0.485,3.089-1.455,6.523
	c-0.613,2.163-1.087,4.549-1.421,7.159c-0.335,2.609-0.501,4.656-0.501,6.139c0,1.84,0.117,3.668,0.351,5.486
	c0.044,0.347,0.067,0.597,0.067,0.752c0,0.559-0.19,1.038-0.568,1.439c-0.379,0.4-0.781,0.602-1.204,0.602
	c-0.591,0-1.001-0.367-1.229-1.104c-0.229-0.736-0.343-1.924-0.343-3.563c0-3.734,0.448-8.363,1.346-13.883
	c0.896-5.52,1.611-8.748,2.14-9.685C24.367,0.619,24.904,0.15,25.45,0.15z"/>
<path fill="#FFFFFF" d="M41.754,22.564c-2.051,1.784-3.854,3.082-5.41,3.888c-1.554,0.81-2.746,1.213-3.57,1.213
	c-1.104,0-1.948-0.46-2.534-1.379c-0.585-0.919-0.878-1.994-0.878-3.22c0-1.716,0.349-3.838,1.046-6.364
	c0.696-2.526,1.215-4.026,1.555-4.5c0.34-0.473,0.884-0.71,1.63-0.71c0.312,0,0.569,0.184,0.769,0.552s0.301,0.786,0.301,1.254
	c0,0.278-0.128,0.641-0.385,1.087c-0.602,1.048-0.917,1.628-0.944,1.74c-0.029,0.111-0.243,0.784-0.645,2.016
	c-0.4,1.232-0.602,2.389-0.602,3.471c0,0.379,0.092,0.97,0.276,1.773c0.184,0.803,0.565,1.205,1.146,1.205
	c0.612,0,1.368-0.187,2.266-0.561c0.896-0.373,1.909-0.983,3.035-1.831c1.126-0.848,1.885-1.533,2.274-2.058
	c0.39-0.524,0.666-1.121,0.828-1.789c0.161-0.669,0.275-2.119,0.343-4.349c0.067-2.231,0.607-3.346,1.622-3.346
	c0.602,0,0.993,0.159,1.17,0.477c0.178,0.318,0.268,0.923,0.268,1.814c0,0.736-0.05,1.656-0.15,2.76
	c-0.123,1.394-0.2,2.387-0.234,2.977c-0.157,3.067-0.555,6.147-1.196,9.241c-0.641,3.095-1.574,5.683-2.801,7.762
	c-1.227,2.079-2.915,3.12-5.066,3.12c-2.186,0-4.127-0.571-5.828-1.716c-1.7-1.142-2.55-2.109-2.55-2.9
	c0-0.369,0.086-0.731,0.259-1.089c0.173-0.356,0.393-0.535,0.661-0.535c0.133,0,0.278,0.106,0.435,0.318
	c1.459,2.241,3.756,3.362,6.89,3.362c1.616,0,2.974-1.42,4.072-4.258c1.098-2.838,1.703-5.499,1.814-7.986
	C41.642,23.523,41.688,23.043,41.754,22.564z"/>
<path fill="#FFFFFF" d="M70.131,11.592c1.148-0.089,2.229-0.195,3.243-0.318c1.003-0.111,1.84-0.167,2.509-0.167
	c0.847,0,1.382,0.079,1.606,0.234c0.223,0.157,0.334,0.43,0.334,0.819c0,0.904-0.63,1.395-1.89,1.473
	c-1.617,0.101-3.104,0.24-4.464,0.417c-1.36,0.179-2.093,0.326-2.199,0.443c-0.106,0.118-0.443,1.445-1.011,3.981
	c-0.568,2.537-0.853,4.185-0.853,4.942c0,1.227,0.161,2.043,0.485,2.451c0.323,0.406,0.808,0.61,1.455,0.61
	c0.959,0,2.291-0.72,3.996-2.158c0.658-0.591,1.165-0.887,1.522-0.887c0.479,0,0.719,0.257,0.719,0.77
	c0,0.803-0.772,1.842-2.316,3.118c-1.544,1.277-3.125,1.916-4.741,1.916c-2.698,0-4.047-1.59-4.047-4.767
	c0-1.148,0.279-2.927,0.836-5.336c0.545-2.397,0.819-3.836,0.819-4.315c0-0.167-0.134-0.251-0.401-0.251l-1.739,0.15
	c-1.427,0-2.141-0.568-2.141-1.706c0-0.646,0.33-0.97,0.986-0.97h3.445c0.234,0,0.44-0.106,0.619-0.318
	c0.178-0.211,0.44-0.922,0.786-2.132c0.345-1.21,0.652-2.406,0.919-3.587c0.268-1.171,0.792-1.756,1.572-1.756
	c0.479,0,0.853,0.167,1.12,0.501c0.268,0.335,0.4,0.647,0.4,0.937c0,0.156-0.2,0.953-0.602,2.391L70.131,11.592z"/>
<path fill="#FFFFFF" d="M84.26,29.306c-1.527,0-2.787-0.58-3.778-1.74c-0.993-1.159-1.488-2.592-1.488-4.298
	c0-2.877,0.967-5.712,2.9-8.506c1.934-2.793,4.25-4.189,6.948-4.189c1.784,0,3.23,0.686,4.339,2.057s1.663,3.006,1.663,4.901
	c0,2.899-1.145,5.586-3.436,8.063C89.118,28.067,86.735,29.306,84.26,29.306z M81.937,22.832c0,1.127,0.237,2.046,0.71,2.76
	c0.474,0.713,1.101,1.07,1.881,1.07c1.661,0,3.328-0.911,5-2.734c1.672-1.824,2.509-3.85,2.509-6.081
	c0-1.372-0.32-2.484-0.961-3.336c-0.641-0.853-1.503-1.28-2.583-1.28c-1.794,0-3.336,1.102-4.623,3.304
	C82.58,18.737,81.937,20.835,81.937,22.832z"/>
<path fill="#FFFFFF" d="M124.241,21.192c-1.427,2.399-2.887,4.255-4.381,5.571c-1.494,1.315-2.882,1.973-4.164,1.973
	c-0.735,0-1.486-0.429-2.249-1.287c-0.765-0.859-1.146-2.179-1.146-3.965c0-1.459,0.352-3.612,1.054-6.456
	c0.591-2.376,0.886-4.042,0.886-5.001c0.323-0.669,0.831-1.003,1.521-1.003c0.468,0,0.841,0.165,1.12,0.494
	c0.279,0.33,0.418,0.671,0.418,1.028c0,0.781-0.273,1.89-0.819,3.329c-1.037,2.798-1.555,5.202-1.555,7.209
	c0,1.829,0.424,2.743,1.271,2.743c1.082,0,2.458-0.92,4.13-2.761c1.672-1.839,3.104-4.404,4.298-7.694
	c0.467-1.315,0.85-2.171,1.145-2.567c0.295-0.396,0.694-0.594,1.196-0.594c0.757,0,1.137,0.502,1.137,1.505
	c0,0.123-0.106,0.53-0.318,1.221c-0.668,2.442-1.003,4.75-1.003,6.925c0,2.609,0.429,4.299,1.288,5.068
	c0.446,0.414,0.668,0.749,0.668,1.005c0,0.312-0.225,0.596-0.677,0.853c-0.452,0.256-0.861,0.384-1.229,0.384
	c-0.781,0-1.411-0.579-1.89-1.74c-0.479-1.158-0.719-2.871-0.719-5.134v-0.552C124.225,21.567,124.231,21.382,124.241,21.192z"/>
<path fill="#FFFFFF" d="M144.709,15.606c-0.58,0-1.213,0.379-1.898,1.137c-0.686,0.758-1.731,2.459-3.135,5.101
	c-1.851,3.546-3.046,5.565-3.587,6.055c-0.541,0.491-0.99,0.736-1.346,0.736c-1.315,0-1.973-0.636-1.973-1.907
	c0-0.535,0.089-1.294,0.268-2.276c0.613-3.367,0.919-6.918,0.919-10.654c0-0.424,0.181-0.895,0.543-1.414s0.705-0.777,1.028-0.777
	c0.58,0,0.992,0.178,1.238,0.535c0.246,0.357,0.368,1.077,0.368,2.158c0,1.126-0.335,3.446-1.003,6.958
	c-0.223,1.161-0.334,1.897-0.334,2.209c0,0.178,0.044,0.268,0.133,0.268c0.167,0,0.942-1.333,2.324-3.998
	c1.393-2.709,2.614-4.617,3.662-5.721c1.048-1.103,2.201-1.655,3.462-1.655c1.004,0,1.82,0.458,2.449,1.372
	c0.629,0.915,1.09,2.582,1.38,5.002c0.311,2.754,0.593,4.468,0.844,5.143c0.25,0.675,0.65,1.012,1.196,1.012
	c0.346,0,0.78-0.123,1.305-0.368c0.088-0.045,0.156-0.067,0.201-0.067c0.479,0,0.718,0.279,0.718,0.836
	c0,0.491-0.329,1.012-0.986,1.564s-1.451,0.827-2.374,0.827c-0.948,0-1.681-0.375-2.2-1.128c-0.518-0.752-0.927-2.762-1.229-6.029
	C146.37,17.245,145.712,15.606,144.709,15.606z"/>
<path fill="#FFFFFF" d="M161.882,0.15c0.804,0,1.205,0.513,1.205,1.539c0,0.914-0.485,3.089-1.456,6.523
	c-0.613,2.163-1.086,4.549-1.421,7.159c-0.335,2.609-0.502,4.656-0.502,6.139c0,1.84,0.117,3.668,0.353,5.486
	c0.044,0.347,0.066,0.597,0.066,0.752c0,0.559-0.189,1.038-0.569,1.439c-0.379,0.4-0.781,0.602-1.202,0.602
	c-0.592,0-1.002-0.367-1.231-1.104s-0.343-1.924-0.343-3.563c0-3.734,0.449-8.363,1.347-13.883c0.896-5.52,1.61-8.748,2.14-9.685
	C160.799,0.619,161.336,0.15,161.882,0.15z"/>
<path fill="#FFFFFF" d="M169.022,24.755c0,0.848,0.117,1.801,0.352,2.861c0.044,0.2,0.066,0.367,0.066,0.5
	c0,0.201-0.184,0.461-0.553,0.778c-0.366,0.318-0.756,0.477-1.169,0.477c-1.081,0-1.622-0.992-1.622-2.977
	c0-2.052,0.424-5.297,1.271-9.735c0.29-1.55,0.435-2.503,0.435-2.86c0-0.703,0.128-1.302,0.385-1.799
	c0.256-0.496,0.618-0.744,1.087-0.744c0.567,0,1.017,0.136,1.346,0.41s0.494,0.577,0.494,0.912c0,0.336-0.079,0.775-0.235,1.322
	c-0.836,2.944-1.356,5.052-1.555,6.323C169.123,21.493,169.022,23.004,169.022,24.755z M171.212,6.072
	c-0.233,0-0.411-0.251-0.534-0.752c-0.045-0.156-0.106-0.329-0.184-0.519c-0.302-0.725-0.452-1.354-0.452-1.89
	c0-0.446,0.265-0.9,0.795-1.363c0.528-0.463,1.117-0.694,1.764-0.694c0.324,0,0.686,0.126,1.087,0.376s0.602,0.494,0.602,0.728
	c0,0.368-0.137,0.993-0.41,1.874c-0.272,0.881-0.708,1.475-1.304,1.781C171.98,5.918,171.524,6.072,171.212,6.072z"/>
<path fill="#FFFFFF" d="M188.353,15.238c-1.037,0.022-3.255,3.094-6.656,9.216c-1.147,2.063-1.816,3.186-2.006,3.37
	c-0.189,0.185-0.537,0.35-1.043,0.493c-0.508,0.146-0.929,0.218-1.264,0.218c-0.748,0-1.12-1.454-1.12-4.365
	c0-1.639,0.351-4.605,1.054-8.898c0.29-1.739,0.434-2.983,0.434-3.729c0-0.736,0.329-1.104,0.987-1.104
	c1.237,0,1.854,0.892,1.854,2.675c0,0.836-0.206,2.476-0.618,4.918c-0.479,2.788-0.726,4.482-0.736,5.084
	c0.69-0.668,1.706-2.135,3.043-4.398c1.895-3.1,3.291-5.066,4.188-5.896c0.896-0.83,1.826-1.246,2.784-1.246
	c0.724,0,1.302,0.485,1.731,1.455s0.688,3.284,0.777,6.941c0.021,0.914,0.105,1.595,0.25,2.041c0.146,0.446,0.252,0.668,0.318,0.668
	c0.523,0,1.662-1.784,3.411-5.353c0.936-1.885,1.847-3.317,2.734-4.299c0.886-0.98,1.869-1.471,2.952-1.471
	c0.902,0,1.56,0.465,1.973,1.396c0.412,0.931,0.708,2.312,0.885,4.141c0.168,1.851,0.427,3.545,0.778,5.085
	c0.352,1.538,0.996,2.524,1.932,2.959c0.635,0.301,0.953,0.654,0.953,1.054c0,0.391-0.268,0.793-0.803,1.205
	c-0.534,0.412-1.025,0.619-1.472,0.619c-0.892,0-1.688-0.547-2.391-1.64c-0.703-1.093-1.231-3.458-1.589-7.092
	c-0.155-1.459-0.306-2.498-0.451-3.11c-0.144-0.614-0.373-0.92-0.686-0.92c-0.469,0-1.023,0.446-1.664,1.338
	c-0.642,0.893-1.676,2.704-3.103,5.437c-1.114,2.128-1.958,3.548-2.532,4.257c-0.575,0.707-1.129,1.062-1.664,1.062
	c-0.479,0-0.908-0.192-1.288-0.577c-0.379-0.384-0.619-0.847-0.72-1.388c-0.101-0.541-0.207-1.871-0.317-3.989
	C189.104,17.87,188.799,15.818,188.353,15.238z"/>
<path fill="#FFFFFF" d="M214.121,24.755c0,0.848,0.117,1.801,0.352,2.861c0.045,0.2,0.066,0.367,0.066,0.5
	c0,0.201-0.184,0.461-0.552,0.778c-0.368,0.318-0.758,0.477-1.17,0.477c-1.083,0-1.622-0.992-1.622-2.977
	c0-2.052,0.424-5.297,1.271-9.735c0.289-1.55,0.434-2.503,0.434-2.86c0-0.703,0.128-1.302,0.385-1.799
	c0.256-0.496,0.619-0.744,1.087-0.744c0.567,0,1.016,0.136,1.346,0.41s0.493,0.577,0.493,0.912c0,0.336-0.078,0.775-0.233,1.322
	c-0.837,2.944-1.355,5.052-1.555,6.323C214.223,21.493,214.121,23.004,214.121,24.755z M216.312,6.072
	c-0.234,0-0.412-0.251-0.535-0.752c-0.045-0.156-0.106-0.329-0.184-0.519c-0.302-0.725-0.452-1.354-0.452-1.89
	c0-0.446,0.265-0.9,0.795-1.363c0.529-0.463,1.116-0.694,1.764-0.694c0.323,0,0.686,0.126,1.088,0.376
	c0.4,0.251,0.601,0.494,0.601,0.728c0,0.368-0.136,0.993-0.409,1.874c-0.272,0.881-0.708,1.475-1.304,1.781
	C217.078,5.918,216.623,6.072,216.312,6.072z"/>
<path fill="#FFFFFF" d="M227.632,11.592c1.148-0.089,2.229-0.195,3.245-0.318c1.004-0.111,1.839-0.167,2.509-0.167
	c0.847,0,1.382,0.079,1.604,0.234c0.224,0.157,0.335,0.43,0.335,0.819c0,0.904-0.63,1.395-1.89,1.473
	c-1.615,0.101-3.104,0.24-4.464,0.417c-1.36,0.179-2.093,0.326-2.199,0.443c-0.106,0.118-0.442,1.445-1.011,3.981
	c-0.569,2.537-0.853,4.185-0.853,4.942c0,1.227,0.16,2.043,0.484,2.451c0.324,0.406,0.809,0.61,1.456,0.61
	c0.958,0,2.29-0.72,3.995-2.158c0.658-0.591,1.166-0.887,1.521-0.887c0.479,0,0.721,0.257,0.721,0.77
	c0,0.803-0.773,1.842-2.317,3.118c-1.544,1.277-3.123,1.916-4.74,1.916c-2.698,0-4.046-1.59-4.046-4.767
	c0-1.148,0.277-2.927,0.835-5.336c0.547-2.397,0.819-3.836,0.819-4.315c0-0.167-0.133-0.251-0.4-0.251l-1.74,0.15
	c-1.427,0-2.139-0.568-2.139-1.706c0-0.646,0.328-0.97,0.986-0.97h3.444c0.234,0,0.439-0.106,0.618-0.318
	c0.178-0.211,0.44-0.922,0.785-2.132c0.346-1.21,0.652-2.406,0.92-3.587c0.268-1.171,0.791-1.756,1.572-1.756
	c0.479,0,0.853,0.167,1.12,0.501c0.268,0.335,0.401,0.647,0.401,0.937c0,0.156-0.201,0.953-0.603,2.391L227.632,11.592z"/>
<path fill="#FFFFFF" d="M251.192,22.798c0,1.137-1.006,2.51-3.019,4.115c-2.012,1.606-4.088,2.409-6.229,2.409
	c-1.795,0-3.18-0.53-4.155-1.589s-1.463-2.536-1.463-4.432c0-3.189,1.075-6.222,3.228-9.1c2.152-2.877,4.503-4.315,7.057-4.315
	c0.836,0,1.519,0.273,2.049,0.82c0.528,0.546,0.794,1.205,0.794,1.974c0,1.717-0.843,3.362-2.525,4.935
	c-1.684,1.572-3.936,3.117-6.756,4.633c-0.58,0.301-0.87,0.691-0.87,1.17c0,0.926,0.27,1.668,0.803,2.225
	c0.535,0.558,1.327,0.836,2.375,0.836c2.396,0,4.844-1.327,7.34-3.98c0.368-0.368,0.646-0.553,0.836-0.553
	C251.014,21.945,251.192,22.229,251.192,22.798z M239.572,20.188c4.726-2.81,7.088-5.068,7.088-6.773
	c0-0.669-0.301-1.004-0.903-1.004c-1.025,0-2.182,0.752-3.47,2.258C241,16.174,240.095,18.014,239.572,20.188z"/>
<path fill="#FFFFFF" d="M266.677,21.544c-1.493,2.397-3.076,4.246-4.749,5.543c-1.672,1.3-3.211,1.949-4.615,1.949
	c-1.081,0-1.938-0.415-2.567-1.246c-0.629-0.83-0.944-1.937-0.944-3.32c0-2.821,1.146-5.714,3.438-8.681
	c2.29-2.966,4.763-4.45,7.415-4.45c1.159,0,2.235,0.497,3.227,1.489l2.342-10.939c0.167-0.747,0.477-1.249,0.929-1.505
	C271.602,0.128,271.955,0,272.212,0c0.78,0,1.17,0.691,1.17,2.074c0,0.245-0.257,1.16-0.77,2.743
	c-0.813,2.453-1.585,5.467-2.315,9.041c-0.73,3.574-1.096,6.443-1.096,8.605c0,2.23,0.485,3.345,1.455,3.345
	c0.623,0,1.271-0.206,1.938-0.62c0.279-0.2,0.541-0.301,0.787-0.301c0.356,0,0.535,0.235,0.535,0.703c0,0.568-0.5,1.228-1.496,1.974
	c-0.999,0.748-2.022,1.121-3.069,1.121c-1.84,0-2.759-1.774-2.759-5.32C266.594,22.766,266.621,22.158,266.677,21.544z
	 M264.486,13.716c-1.808,0-3.596,1.223-5.368,3.672c-1.771,2.447-2.658,4.708-2.658,6.782c0,1.394,0.462,2.091,1.388,2.091
	c0.87,0,1.927-0.457,3.169-1.371c1.243-0.914,2.522-2.373,3.838-4.374c1.314-2.001,1.973-3.504,1.973-4.508
	c0-0.491-0.226-0.995-0.677-1.514C265.698,13.975,265.144,13.716,264.486,13.716z"/>
<path fill="#FFFFFF" d="M280.99,25.106c0,1.104-0.275,1.885-0.828,2.341c-0.551,0.458-1.027,0.688-1.43,0.688
	c-0.825,0-1.235-0.541-1.235-1.624c0-0.424,0.2-0.928,0.6-1.514c0.402-0.585,0.815-0.878,1.238-0.878
	c0.278,0,0.627,0.123,1.045,0.367C280.798,24.733,281.001,24.94,280.99,25.106z M280.99,20.138c-0.278,0-0.663-0.043-1.153-0.133
	c-0.492-0.088-0.825-0.201-1.005-0.335c-0.144-1.192,0.136-3.434,0.838-6.724c0.567-2.654,0.852-4.51,0.852-5.57
	c0-1.494,0.272-2.503,0.819-3.027c0.546-0.524,1.003-0.786,1.371-0.786c0.277,0,0.562,0.116,0.852,0.352
	C283.854,4.149,284,4.411,284,4.701c0,0.245-0.613,3.072-1.84,8.48c-0.513,2.264-0.78,3.998-0.803,5.202
	C281.336,19.163,281.213,19.749,280.99,20.138z"/>
</svg>
